<svg width="126" height="126" viewBox="0 0 126 126" fill="none" xmlns="http://www.w3.org/2000/svg">
<circle cx="63" cy="63" r="63" fill="#333242"/>
<path d="M49.2477 65.8223C49.8871 63.4798 48.8172 62.5896 47.1601 63.4798L35.1429 69.3362C34.5938 69.5864 34.1183 69.9492 33.7548 70.3953C33.3914 70.8415 33.1503 71.3583 33.0511 71.9038C32.9519 72.4492 32.9975 73.008 33.1841 73.5347C33.3708 74.0614 33.6931 74.5412 34.1251 74.935L41.1449 83.0638C41.4294 83.3303 41.7899 83.5215 42.1871 83.6166C42.5843 83.7117 43.003 83.707 43.3975 83.6031C43.792 83.4992 44.1471 83.3 44.424 83.0272C44.701 82.7545 44.8891 82.4187 44.968 82.0565L49.2477 65.8223Z" fill="#FDB590"/>
<path d="M52.6973 93.3605C49.9444 90.4628 49.3912 88.0499 49.9444 86.1104L56.9782 60.9546C57.5111 59.2128 58.7168 57.6868 60.3898 56.6369L73.5618 50.3566C73.9721 50.2004 74.424 50.1473 74.8668 50.2033C75.3097 50.2594 75.7259 50.4223 76.0691 50.674C76.4122 50.9256 76.6687 51.256 76.8098 51.6281C76.9509 52.0002 76.971 52.3994 76.868 52.781L63.6038 100.53C63.5092 100.882 63.3036 101.203 63.0105 101.458C62.7173 101.712 62.3485 101.889 61.946 101.969C61.5435 102.048 61.1236 102.027 60.7343 101.907C60.345 101.787 60.002 101.574 59.7444 101.292L52.6973 93.3605Z" fill="#EBEB4A"/>
<path d="M93.1291 64.6856C93.782 65.6874 94.0792 66.8405 93.982 67.9944C93.8847 69.1482 93.3976 70.2493 92.584 71.1539L76.3886 89.2581C76.0839 89.6072 75.653 89.8526 75.1683 89.9531C74.6836 90.0536 74.1747 90.0031 73.7271 89.81C73.2794 89.6169 72.9204 89.293 72.7103 88.8928C72.5002 88.4926 72.4519 88.0404 72.5734 87.6123L81.6573 53.5676C81.7552 53.1902 81.9792 52.8478 82.3002 52.5853C82.6212 52.3228 83.0241 52.1523 83.4561 52.0964C83.8881 52.0404 84.3292 52.1014 84.7214 52.2715C85.1136 52.4417 85.4388 52.7129 85.6543 53.0497L93.1291 64.6856Z" fill="#E8E1FE"/>
<path d="M63.7011 49.9359C63.3337 50.1207 62.9151 50.2041 62.4964 50.1758C62.0777 50.1476 61.6772 50.0089 61.3438 49.7769C61.0104 49.5448 60.7587 49.2294 60.6194 48.8692C60.4801 48.5091 60.4593 48.1198 60.5595 47.749L63.7399 35.8153L65.3689 29.9366L66.2739 27.1854C66.3311 27.0023 66.446 26.8385 66.6044 26.7141C66.7627 26.5896 66.9576 26.51 67.1651 26.485C67.3726 26.46 67.5835 26.4907 67.7721 26.5734C67.9606 26.6561 68.1184 26.7871 68.2261 26.9503L77.276 40.9533C77.4199 41.1811 77.5123 41.4328 77.5479 41.6936C77.5835 41.9543 77.5615 42.2189 77.4832 42.4718C77.405 42.7247 77.272 42.9609 77.0921 43.1665C76.9123 43.3721 76.6891 43.543 76.4357 43.6692L63.7011 49.9359Z" fill="#94E2BF"/>
<path d="M37.1222 62.9107L50.708 56.3676C51.518 55.9788 52.226 55.4381 52.7842 54.782C53.3424 54.1259 53.7379 53.3697 53.9439 52.5643L61.0963 24.7505C61.1732 24.4145 61.1159 24.0649 60.9345 23.7632C60.753 23.4615 60.4592 23.2271 60.1046 23.1014C59.7501 22.9756 59.3576 22.9666 58.9964 23.0758C58.6351 23.1851 58.3283 23.4056 58.13 23.6985L50.5924 35.2587L45.212 43.9982L34.2587 60.194C34.0145 60.5581 33.9099 60.9843 33.9608 61.4072C34.0118 61.83 34.2155 62.2261 34.5407 62.5346C34.8659 62.8431 35.2946 63.047 35.7609 63.1149C36.2273 63.1829 36.7056 63.1111 37.1222 62.9107Z" fill="#5DE8E8"/>
</svg>
